# xmcd CD database file
# Generated: ¶â 12·î 6 21:17:18 2002 by KSCD
# 
# Track frame offsets:
#       150
#       14795
#       19435
#       28445
#       35218
#       41228
#       45878
#       50913
#       57040
#       65025
#       77738
#       84973
#       99870
#       110733
#       124493
#       134918
#       151605
#       165135
#       178108
#       188495
#
# Disc length: 2547 seconds
#
# Revision: 1
# Processed by: cddbd v1.4PL0 Copyright (c) Steve Scherf et al.
# Submitted via: Kscd 1.3.3
#
DISCID=1909f114
DTITLE=tensi - tensi
DYEAR=1900
DGENRE=
TTITLE0=tensi
TTITLE1=
TTITLE2=
TTITLE3=
TTITLE4=
TTITLE5=
TTITLE6=
TTITLE7=
TTITLE8=
TTITLE9=
TTITLE10=
TTITLE11=
TTITLE12=
TTITLE13=
TTITLE14=
TTITLE15=
TTITLE16=
TTITLE17=
TTITLE18=
TTITLE19=
EXTD=
EXTT0=
EXTT1=
EXTT2=
EXTT3=
EXTT4=
EXTT5=
EXTT6=
EXTT7=
EXTT8=
EXTT9=
EXTT10=
EXTT11=
EXTT12=
EXTT13=
EXTT14=
EXTT15=
EXTT16=
EXTT17=
EXTT18=
EXTT19=
PLAYORDER=
